<svg xmlns="http://www.w3.org/2000/svg" viewBox="0 0 2432 1888" role="img" aria-label="Celeste Yoga">
  <g transform="translate(0.000000,1888.000000) scale(0.100000,-0.100000)" fill="#000000" stroke="none">
<path d="M19675 17579 c-8 -13 20 -54 97 -140 168 -189 359 -419 394 -475 10
-18 38 -56 60 -86 45 -59 128 -177 184 -263 19 -29 50 -74 68 -100 17 -25 32
-49 32 -52 0 -4 8 -15 18 -26 9 -10 28 -38 42 -61 14 -23 48 -75 75 -115 28
-41 53 -78 56 -85 3 -6 13 -24 22 -41 9 -16 27 -52 40 -80 13 -27 31 -56 40
-64 10 -7 17 -19 17 -26 0 -8 11 -27 25 -43 14 -17 25 -37 25 -45 0 -8 7 -20
15 -27 8 -6 17 -22 21 -33 8 -28 56 -131 64 -137 9 -7 100 -192 100 -203 0 -5
9 -20 20 -34 11 -14 20 -33 20 -41 0 -19 50 -122 67 -140 7 -7 13 -23 13 -35
0 -13 6 -31 14 -42 7 -11 17 -31 21 -45 8 -30 40 -101 66 -151 10 -20 19 -46
19 -57 0 -11 6 -25 14 -31 8 -7 17 -28 21 -49 4 -20 15 -51 26 -68 10 -17 19
-45 19 -61 0 -17 9 -42 20 -56 11 -14 20 -38 20 -54 0 -15 9 -41 20 -58 11
-16 20 -40 20 -52 0 -13 9 -37 20 -55 11 -18 20 -46 20 -63 0 -16 9 -41 20
-55 11 -14 20 -39 20 -55 0 -17 9 -48 20 -70 11 -22 20 -47 20 -56 0 -9 9 -36
20 -60 11 -24 20 -54 20 -67 0 -12 9 -40 20 -62 11 -22 20 -55 20 -74 0 -20 9
-50 20 -68 13 -21 20 -51 20 -83 0 -33 7 -60 20 -80 13 -19 20 -47 20 -78 0
-26 7 -61 15 -77 9 -16 18 -51 21 -77 3 -27 14 -74 25 -106 10 -31 19 -71 19
-88 0 -16 6 -43 14 -58 8 -15 18 -63 22 -107 3 -43 12 -93 20 -111 7 -18 16
-69 20 -115 4 -46 11 -94 16 -108 6 -14 16 -86 23 -161 8 -75 21 -163 29 -196
9 -34 16 -104 17 -159 0 -55 7 -133 15 -174 21 -108 34 -716 28 -1280 -4 -397
-8 -479 -24 -560 -10 -52 -21 -153 -24 -225 -3 -73 -12 -152 -21 -179 -8 -27
-15 -81 -15 -120 0 -39 -8 -109 -19 -156 -26 -112 -49 -226 -66 -325 -7 -44
-18 -93 -24 -108 -6 -16 -11 -40 -11 -55 0 -25 -14 -82 -61 -242 -27 -94 -49
-178 -59 -230 -4 -25 -15 -58 -24 -75 -9 -16 -16 -40 -16 -51 0 -12 -9 -41
-20 -65 -11 -24 -20 -62 -20 -84 0 -23 -9 -53 -20 -70 -11 -16 -20 -40 -20
-52 0 -12 -11 -43 -25 -69 -14 -26 -25 -57 -25 -69 0 -13 -7 -28 -15 -35 -8
-7 -15 -22 -15 -33 0 -11 -9 -39 -19 -61 -31 -65 -52 -117 -67 -168 -8 -26
-19 -50 -24 -53 -6 -3 -10 -16 -10 -29 0 -13 -9 -31 -20 -41 -11 -10 -20 -27
-20 -38 0 -11 -54 -128 -119 -261 -65 -132 -124 -252 -130 -266 -6 -14 -22
-43 -36 -65 -13 -22 -28 -49 -33 -60 -6 -12 -17 -27 -26 -34 -9 -7 -16 -21
-16 -31 0 -9 -8 -28 -18 -41 -10 -13 -24 -35 -31 -49 -23 -46 -46 -85 -84
-141 -20 -31 -37 -61 -37 -68 0 -7 -16 -33 -35 -58 -19 -25 -35 -51 -35 -58 0
-7 -7 -18 -15 -25 -8 -7 -29 -35 -46 -64 -16 -28 -43 -71 -59 -96 -17 -25 -33
-52 -37 -60 -4 -8 -24 -37 -45 -65 -20 -27 -46 -61 -56 -75 -10 -14 -30 -45
-45 -70 -14 -25 -42 -62 -61 -84 -20 -21 -36 -42 -36 -47 0 -4 -26 -41 -58
-81 -32 -40 -63 -82 -69 -92 -10 -18 -88 -113 -228 -276 -30 -36 -99 -119
-153 -185 -170 -210 -735 -779 -906 -912 -27 -21 -95 -79 -152 -130 -57 -51
-120 -103 -141 -116 -21 -14 -56 -41 -78 -62 -59 -54 -121 -105 -130 -105 -4
0 -41 -27 -82 -60 -41 -33 -78 -60 -82 -60 -5 0 -28 -18 -52 -40 -24 -22 -48
-40 -54 -40 -5 0 -32 -17 -60 -38 -27 -21 -68 -48 -90 -62 -22 -13 -58 -39
-81 -57 -23 -18 -48 -33 -56 -33 -8 0 -25 -11 -38 -25 -13 -14 -28 -25 -33
-25 -6 0 -18 -6 -26 -14 -9 -7 -42 -27 -74 -44 -32 -17 -74 -44 -95 -60 -41
-32 -99 -65 -152 -86 -8 -4 -33 -17 -55 -31 -40 -24 -122 -67 -262 -139 -40
-20 -75 -41 -78 -46 -3 -6 -15 -10 -27 -10 -11 0 -33 -11 -50 -25 -16 -14 -36
-25 -44 -25 -8 0 -31 -9 -51 -20 -21 -11 -44 -20 -51 -20 -8 0 -26 -7 -40 -15
-15 -8 -38 -19 -52 -25 -14 -5 -32 -14 -40 -19 -8 -6 -42 -22 -75 -36 -85 -38
-144 -65 -187 -86 -20 -11 -48 -19 -60 -19 -13 0 -29 -5 -35 -11 -13 -13 -112
-56 -158 -69 -16 -5 -61 -21 -100 -35 -38 -15 -90 -33 -115 -41 -25 -8 -59
-21 -77 -29 -17 -8 -41 -15 -52 -15 -12 0 -32 -6 -44 -14 -12 -8 -40 -17 -62
-20 -21 -4 -46 -13 -55 -20 -8 -8 -31 -17 -50 -21 -19 -4 -46 -13 -60 -20 -14
-7 -43 -15 -65 -19 -35 -6 -107 -27 -200 -58 -16 -6 -57 -16 -90 -23 -33 -6
-82 -19 -108 -29 -26 -9 -58 -16 -71 -16 -13 0 -41 -6 -62 -14 -22 -7 -66 -16
-99 -20 -33 -3 -82 -13 -109 -21 -27 -8 -67 -15 -88 -15 -21 0 -64 -9 -95 -20
-32 -11 -79 -20 -105 -20 -26 0 -73 -7 -105 -15 -32 -9 -116 -22 -188 -30 -71
-8 -148 -19 -170 -24 -22 -6 -83 -13 -135 -16 -52 -4 -143 -13 -202 -21 -60
-8 -197 -16 -305 -19 -109 -3 -254 -7 -323 -9 -194 -6 -771 11 -910 28 -69 8
-186 17 -260 21 -74 3 -169 13 -210 20 -41 8 -109 17 -150 20 -41 4 -98 13
-127 20 -28 8 -89 17 -135 21 -45 4 -98 13 -117 21 -19 8 -69 19 -110 23 -42
5 -94 14 -116 19 -22 6 -67 14 -100 19 -33 5 -73 14 -90 20 -42 16 -150 41
-218 52 -32 6 -70 16 -85 24 -15 7 -49 17 -77 21 -27 4 -62 13 -77 21 -15 8
-44 14 -65 14 -21 0 -51 9 -68 20 -16 11 -43 20 -58 20 -15 0 -44 8 -65 19
-20 10 -57 21 -82 24 -30 4 -50 13 -59 26 -9 15 -24 21 -50 21 -20 0 -47 7
-60 17 -13 9 -40 20 -60 24 -20 4 -67 19 -106 34 -38 14 -83 30 -100 35 -16 6
-43 16 -60 24 -52 24 -140 56 -155 56 -8 0 -28 9 -45 20 -16 11 -38 20 -47 20
-10 0 -39 11 -65 25 -96 49 -199 95 -214 95 -9 0 -24 9 -34 20 -10 11 -28 20
-40 20 -12 0 -34 9 -48 20 -14 11 -29 20 -34 20 -4 0 -43 18 -86 40 -43 22
-84 40 -91 40 -7 0 -24 9 -38 19 -13 11 -36 23 -51 26 -14 4 -31 13 -38 21 -6
8 -19 14 -29 14 -9 0 -25 9 -35 20 -10 11 -26 20 -35 20 -9 0 -25 9 -35 20
-10 11 -26 20 -36 20 -10 0 -30 11 -45 25 -15 14 -34 25 -42 25 -9 0 -23 6
-31 14 -9 8 -39 26 -68 41 -28 14 -57 33 -64 41 -6 8 -20 14 -30 14 -11 0 -28
9 -39 20 -11 11 -42 33 -68 48 -80 46 -143 86 -172 110 -15 12 -32 22 -38 22
-5 0 -44 27 -87 60 -43 33 -82 60 -87 60 -4 0 -27 17 -51 38 -23 21 -60 49
-82 62 -22 13 -61 41 -86 62 -25 21 -48 38 -52 38 -10 0 -248 193 -277 225
-32 35 -140 120 -163 128 -34 13 -17 -28 41 -94 31 -37 86 -102 122 -145 88
-107 599 -614 679 -674 18 -14 43 -34 54 -45 42 -39 125 -105 133 -105 4 0 14
-7 23 -15 132 -122 283 -243 380 -303 25 -15 60 -42 80 -59 19 -18 53 -41 75
-52 23 -10 54 -33 70 -50 17 -17 35 -31 42 -31 7 0 34 -17 61 -37 71 -55 111
-83 119 -83 4 0 18 -10 30 -21 25 -23 53 -41 93 -59 14 -6 31 -20 38 -30 8
-11 21 -20 29 -20 8 0 36 -15 62 -33 26 -18 58 -38 72 -45 14 -6 32 -16 40
-21 8 -5 26 -14 40 -20 14 -6 42 -21 62 -34 20 -12 66 -39 101 -60 36 -21 71
-44 77 -52 7 -8 18 -15 25 -15 17 0 113 -48 120 -60 3 -6 13 -10 22 -10 9 0
49 -20 91 -45 41 -25 80 -45 86 -45 6 0 20 -6 31 -14 11 -7 34 -17 52 -20 17
-4 37 -13 43 -21 6 -8 24 -17 40 -20 16 -3 34 -13 41 -21 6 -8 24 -14 39 -14
15 0 39 -9 53 -20 14 -11 36 -20 50 -20 13 0 32 -9 42 -20 10 -11 30 -20 45
-20 15 0 35 -9 45 -20 10 -11 30 -20 45 -20 14 0 41 -11 60 -25 19 -14 43 -25
55 -25 12 0 30 -7 41 -15 10 -8 33 -15 49 -15 17 0 42 -8 55 -17 37 -26 131
-63 161 -63 15 0 38 -9 52 -20 14 -11 40 -23 59 -26 18 -3 54 -14 80 -25 26
-10 58 -19 71 -19 14 0 30 -6 36 -14 7 -8 35 -17 64 -21 28 -4 61 -14 72 -21
12 -8 44 -17 71 -21 27 -3 58 -12 69 -18 11 -7 44 -16 74 -19 30 -4 66 -13 80
-20 14 -7 50 -16 80 -19 29 -4 63 -13 75 -20 11 -8 44 -17 73 -21 29 -4 69
-13 90 -20 21 -7 74 -17 118 -20 44 -4 90 -14 102 -22 12 -8 46 -14 75 -14 30
0 78 -7 108 -16 30 -8 100 -19 155 -24 56 -5 117 -16 138 -25 20 -8 66 -15
103 -15 36 0 103 -9 148 -19 44 -11 144 -25 221 -30 77 -6 176 -16 220 -22 55
-9 288 -12 745 -13 577 0 677 2 755 16 50 9 146 20 215 24 68 4 139 13 157 20
19 8 68 14 118 14 60 0 103 6 142 20 36 12 83 20 125 20 43 0 90 8 125 20 32
11 72 20 90 20 42 0 135 20 147 31 6 5 29 9 53 9 23 0 66 9 95 20 29 11 87 23
128 27 41 3 85 12 97 20 11 8 52 18 90 23 82 11 197 41 238 64 20 11 42 14 65
11 27 -5 42 -1 62 14 14 11 45 23 69 27 24 3 54 12 66 20 12 7 41 17 65 20 24
4 59 15 78 26 19 10 45 18 58 18 12 0 33 6 45 14 12 8 38 17 57 21 19 4 45 13
57 21 12 8 31 14 43 14 11 0 64 18 117 41 54 22 107 43 118 46 11 4 31 14 44
25 13 10 36 18 51 18 15 0 35 9 45 20 10 11 30 20 45 20 14 0 35 7 46 15 10 8
30 15 43 15 14 0 32 7 41 15 20 18 107 65 121 65 21 0 347 158 424 206 22 13
54 31 70 40 17 8 48 26 70 39 22 14 51 30 65 36 14 6 32 15 40 20 8 5 29 16
46 24 17 7 36 21 44 29 7 9 20 16 29 16 9 0 22 9 29 20 7 11 23 20 36 20 13 0
26 5 28 11 3 10 103 70 168 101 14 6 34 20 45 29 20 17 177 125 285 196 30 19
66 44 80 54 14 11 57 41 95 68 39 26 122 90 185 141 63 51 130 104 149 119 19
14 57 46 86 71 90 78 138 118 200 167 83 64 640 616 797 788 20 22 70 79 110
126 40 47 101 118 136 158 34 39 73 89 86 109 14 20 41 55 61 77 21 22 48 58
62 79 14 22 44 60 67 85 22 25 51 61 64 79 13 18 38 54 55 78 18 25 37 53 42
63 6 9 27 37 48 62 20 26 37 53 37 62 0 8 18 38 40 66 22 28 40 54 40 59 0 5
11 21 24 35 13 14 33 46 46 71 12 25 26 48 31 52 5 3 16 20 24 37 22 46 39 74
58 95 10 10 17 25 17 34 0 8 11 25 25 38 14 13 25 31 25 41 0 9 6 22 14 28 7
6 16 25 20 41 3 18 12 30 21 30 8 0 15 8 15 19 0 10 9 30 20 44 11 14 20 32
20 40 0 7 9 22 20 32 11 10 20 25 20 33 0 8 11 27 25 44 14 16 25 38 25 48 0
10 5 22 10 25 11 7 70 128 70 143 0 5 7 15 15 22 8 7 15 23 15 35 0 12 9 34
20 48 11 14 20 32 20 40 0 7 9 22 20 32 11 10 20 30 20 45 0 15 6 33 14 39 17
15 66 112 66 133 0 8 9 23 19 32 11 10 23 32 26 50 4 17 13 40 19 51 7 11 16
36 20 56 3 21 13 42 21 49 8 7 15 20 15 29 0 9 9 33 20 54 11 20 20 45 20 54
0 10 7 32 16 48 20 38 53 129 63 176 4 20 15 47 24 60 10 13 17 37 17 54 0 16
9 45 20 63 11 18 20 40 20 50 1 9 9 35 20 57 11 22 19 51 20 65 0 14 9 42 20
63 11 20 20 46 20 57 0 11 7 37 16 58 19 42 50 169 65 257 5 33 16 71 23 85 7
14 16 49 20 79 4 30 14 67 22 82 8 15 14 55 14 89 0 36 6 73 16 92 9 17 20 60
25 96 5 36 16 86 24 111 17 54 42 201 60 356 7 61 18 126 23 145 6 19 13 76
16 126 3 50 12 118 21 150 8 32 15 89 15 126 0 37 9 146 19 241 37 332 35
1179 -4 1377 -8 41 -14 132 -15 201 0 81 -5 143 -15 175 -8 27 -17 103 -21
169 -4 82 -11 128 -22 145 -10 16 -18 62 -22 135 -4 60 -12 121 -17 135 -6 14
-14 66 -18 115 -4 52 -13 100 -22 114 -8 13 -17 51 -20 85 -3 33 -14 75 -24
92 -14 23 -19 51 -19 100 0 52 -5 76 -20 99 -13 20 -20 47 -20 82 0 29 -6 67
-14 85 -7 18 -18 51 -24 73 -6 22 -17 60 -25 85 -8 25 -20 65 -27 90 -30 116
-43 156 -56 175 -8 11 -14 35 -14 55 0 19 -9 49 -20 65 -11 17 -20 44 -20 60
0 17 -6 40 -14 51 -8 11 -17 37 -21 57 -4 21 -16 54 -26 74 -11 21 -19 51 -19
68 0 16 -9 41 -20 55 -11 14 -20 35 -20 48 0 12 -9 39 -20 59 -11 21 -20 45
-20 53 0 9 -9 33 -20 55 -11 22 -20 45 -20 52 0 12 -23 63 -61 135 -10 20 -19
43 -19 51 0 8 -9 26 -20 40 -11 14 -20 36 -20 50 0 13 -9 32 -20 42 -11 10
-20 29 -20 42 0 14 -9 36 -20 50 -11 14 -20 35 -20 45 0 11 -9 31 -20 45 -11
14 -20 35 -20 47 0 12 -9 29 -20 39 -11 9 -20 27 -20 40 0 13 -9 32 -20 42
-11 10 -20 28 -20 40 0 12 -9 30 -20 40 -11 10 -20 25 -20 32 0 8 -9 26 -20
40 -11 14 -20 33 -20 43 0 9 -9 27 -20 40 -11 13 -20 30 -20 37 0 8 -9 26 -20
40 -11 14 -20 31 -20 38 0 6 -9 22 -20 35 -11 13 -20 28 -20 35 0 7 -9 20 -20
30 -11 10 -20 26 -20 35 0 9 -15 37 -33 61 -34 44 -53 76 -82 137 -8 17 -20
32 -25 32 -5 0 -13 12 -16 28 -4 15 -15 35 -25 45 -11 10 -19 24 -19 31 0 7
-9 21 -20 31 -11 10 -20 23 -20 30 0 7 -9 20 -20 30 -11 10 -20 23 -20 30 0 7
-9 20 -20 30 -11 10 -20 26 -20 37 0 10 -5 18 -10 18 -6 0 -16 13 -23 28 -7
15 -18 34 -25 42 -19 21 -78 109 -100 150 -11 19 -33 49 -48 65 -30 32 -74 92
-74 102 0 3 -18 27 -40 53 -22 26 -40 51 -40 55 0 3 -26 39 -58 78 -31 40 -72
95 -91 122 -19 28 -59 77 -89 110 -30 33 -69 76 -87 95 -18 19 -34 40 -36 47
-6 19 -209 231 -417 437 -188 186 -281 267 -491 425 -170 128 -174 131 -186
110z M7180 13318 c-36 -17 -121 -58 -190 -90 -69 -32 -132 -63 -140 -68 -8 -6
-26 -15 -40 -21 -57 -23 -183 -84 -240 -114 -14 -8 -32 -16 -40 -19 -8 -3 -46
-24 -85 -46 -38 -22 -111 -60 -162 -86 -50 -25 -112 -65 -138 -90 l-47 -44 22
-30 c23 -33 87 -79 135 -98 35 -15 95 -68 95 -85 0 -7 9 -18 20 -25 11 -7 20
-22 20 -34 0 -12 7 -29 16 -39 8 -9 23 -57 31 -106 15 -79 17 -352 20 -2678 2
-1844 0 -2603 -7 -2635 -6 -25 -14 -60 -18 -79 -4 -19 -12 -36 -18 -38 -17 -6
-67 62 -98 132 -14 33 -35 77 -46 97 -11 20 -20 42 -20 48 0 7 -9 23 -20 37
-11 14 -20 32 -20 40 0 8 -9 26 -20 40 -11 14 -20 33 -20 41 0 9 -9 34 -19 56
-69 146 -104 225 -144 327 -26 64 -53 129 -62 145 -8 16 -15 36 -15 44 0 9 -6
24 -14 35 -7 11 -17 36 -21 55 -4 19 -16 46 -26 59 -11 13 -19 30 -19 38 0 8
-9 32 -20 54 -11 21 -29 57 -40 78 -11 22 -20 49 -20 61 0 11 -4 28 -10 38
-20 36 -59 128 -65 154 -4 15 -13 32 -21 39 -8 6 -14 24 -14 39 0 15 -11 39
-25 54 -14 15 -25 35 -25 44 0 10 -6 27 -14 38 -8 11 -17 37 -21 57 -4 20 -13
41 -20 47 -8 6 -17 26 -20 43 -4 18 -16 46 -26 63 -10 17 -19 39 -19 47 0 9
-9 31 -20 49 -11 18 -20 40 -20 49 0 9 -9 28 -20 42 -11 14 -20 33 -20 42 0 9
-9 33 -19 53 -11 20 -30 60 -42 87 -12 28 -28 62 -36 77 -7 14 -13 35 -13 46
0 10 -8 30 -18 43 -11 13 -22 37 -26 53 -4 16 -16 41 -27 54 -10 14 -19 37
-19 52 0 15 -6 33 -14 39 -8 7 -18 27 -22 44 -3 18 -15 43 -25 56 -11 13 -19
33 -19 43 0 11 -9 31 -20 45 -11 14 -20 32 -20 39 0 8 -9 31 -20 51 -11 21
-20 44 -20 51 0 7 -9 31 -20 53 -11 21 -29 57 -40 78 -11 22 -20 47 -20 56 0
10 -6 29 -13 43 -31 60 -56 118 -62 142 -6 23 -27 73 -61 143 -8 16 -14 37
-14 46 0 10 -9 30 -20 44 -11 14 -20 29 -20 34 0 4 -8 24 -19 43 -10 19 -21
49 -25 67 -4 17 -14 37 -22 44 -8 6 -14 26 -14 45 0 23 -6 37 -20 44 -11 6
-20 17 -20 25 0 18 -59 165 -76 190 -8 11 -14 29 -14 40 0 11 -9 31 -20 45
-11 14 -20 29 -20 34 0 15 -51 140 -61 150 -5 6 -9 18 -9 28 0 17 -24 71 -71
160 -10 20 -19 44 -19 53 0 9 -9 28 -20 42 -11 14 -20 35 -20 45 0 11 -9 31
-20 45 -11 14 -20 36 -20 48 0 12 -7 28 -15 35 -8 7 -15 17 -15 22 0 8 -23 63
-65 153 -8 17 -28 63 -44 103 -17 40 -37 83 -46 95 -8 12 -15 31 -15 43 0 12
-6 27 -14 33 -8 7 -18 27 -21 44 -4 18 -13 39 -20 47 -7 8 -15 30 -19 49 -8
46 -44 101 -65 101 -41 0 -96 -24 -311 -136 -69 -36 -191 -100 -273 -142 -202
-106 -198 -103 -257 -150 -29 -23 -57 -42 -63 -42 -14 0 -36 -32 -37 -51 0
-18 19 -29 50 -29 23 0 105 -67 135 -112 13 -19 35 -69 50 -113 24 -69 27 -89
23 -174 -3 -77 -11 -117 -41 -203 -20 -58 -37 -115 -37 -126 0 -10 -9 -30 -19
-44 -11 -13 -24 -42 -30 -65 -6 -23 -16 -45 -21 -48 -6 -3 -10 -13 -10 -21 0
-16 -36 -100 -71 -165 -10 -20 -19 -46 -19 -58 0 -11 -9 -26 -20 -33 -14 -9
-20 -24 -20 -48 0 -19 -9 -46 -20 -60 -11 -14 -20 -33 -20 -42 0 -16 -9 -39
-56 -143 -7 -16 -16 -43 -20 -60 -4 -16 -12 -37 -19 -45 -7 -8 -16 -31 -20
-50 -4 -19 -13 -42 -20 -50 -7 -8 -16 -29 -20 -47 -3 -17 -13 -37 -20 -43 -8
-7 -17 -28 -21 -49 -4 -20 -15 -47 -25 -60 -11 -13 -19 -34 -19 -46 0 -12 -6
-28 -14 -34 -8 -7 -18 -27 -21 -44 -4 -18 -16 -46 -26 -63 -10 -17 -19 -43
-19 -58 0 -14 -9 -34 -20 -43 -11 -10 -20 -29 -20 -43 0 -14 -7 -34 -15 -44
-8 -11 -15 -26 -15 -34 0 -14 -17 -54 -61 -147 -10 -22 -19 -43 -19 -48 0 -4
-18 -45 -40 -92 -22 -47 -40 -92 -40 -102 0 -10 -11 -40 -24 -68 -14 -27 -37
-81 -51 -120 -15 -38 -33 -77 -41 -86 -8 -8 -14 -29 -14 -45 0 -17 -7 -39 -15
-50 -8 -10 -15 -26 -15 -35 0 -9 -9 -28 -20 -42 -11 -14 -20 -35 -20 -47 0
-13 -8 -37 -19 -54 -10 -17 -21 -47 -25 -67 -4 -21 -13 -42 -21 -49 -7 -6 -17
-26 -21 -43 -3 -18 -13 -41 -20 -52 -8 -11 -14 -29 -14 -41 0 -12 -9 -33 -20
-47 -11 -14 -20 -33 -20 -44 0 -10 -9 -31 -20 -48 -11 -16 -20 -39 -20 -50 0
-11 -11 -38 -25 -60 -13 -22 -25 -46 -25 -54 0 -8 -16 -48 -36 -89 -19 -41
-38 -89 -41 -106 -3 -17 -12 -38 -19 -46 -7 -8 -19 -33 -27 -55 -35 -95 -43
-114 -73 -180 -17 -38 -35 -81 -39 -94 -4 -13 -25 -62 -46 -109 -22 -46 -39
-91 -39 -100 0 -10 -9 -28 -20 -42 -11 -14 -20 -37 -20 -51 0 -15 -6 -32 -14
-38 -8 -7 -18 -25 -21 -41 -3 -16 -13 -34 -21 -41 -8 -6 -14 -15 -14 -20 0
-25 -80 -127 -176 -224 -122 -123 -159 -155 -180 -155 -13 0 -98 -55 -136 -88
-13 -11 -18 -30 -18 -68 0 -29 3 -55 8 -57 4 -3 172 -8 374 -12 360 -7 714 0
737 15 7 4 17 26 22 50 12 52 -1 77 -57 105 -114 59 -208 143 -242 216 -26 55
-27 62 -21 176 6 128 38 255 95 378 8 17 17 46 20 65 4 19 13 42 20 50 7 8 16
27 19 43 4 15 16 44 26 64 10 21 19 43 19 51 0 8 9 25 20 39 11 14 20 34 20
45 0 10 9 36 20 58 11 22 20 46 20 53 0 8 9 26 20 40 11 14 20 35 20 47 0 12
9 33 20 47 11 14 20 40 20 58 0 19 8 39 20 50 11 10 20 24 20 32 0 8 9 32 21
55 11 22 31 73 43 112 13 39 28 80 34 91 5 11 22 52 37 92 15 40 35 75 44 80
9 4 489 9 1068 10 l1052 3 36 -52 c19 -29 35 -59 35 -66 0 -14 5 -26 53 -120
15 -28 27 -63 27 -76 0 -13 7 -29 15 -36 8 -7 15 -22 15 -34 0 -11 9 -32 20
-46 11 -14 20 -29 20 -34 0 -11 42 -105 71 -157 10 -20 19 -44 19 -54 0 -9 9
-28 20 -42 11 -14 20 -32 20 -39 0 -13 22 -63 61 -136 10 -20 19 -48 19 -61 0
-14 7 -30 15 -37 8 -7 15 -23 15 -35 0 -12 8 -33 19 -46 10 -13 22 -35 26 -49
4 -14 14 -34 21 -45 8 -11 14 -29 14 -41 0 -11 9 -29 20 -39 12 -11 20 -31 20
-50 0 -19 8 -39 20 -50 12 -10 20 -31 20 -48 0 -17 7 -39 16 -48 18 -21 55
-124 74 -211 17 -77 7 -190 -22 -237 -26 -42 -62 -79 -101 -104 -27 -18 -67
-72 -67 -92 1 -37 -48 -36 1956 -36 1066 1 1983 1 2037 1 84 0 100 3 117 20
44 44 16 97 -89 165 -95 61 -161 122 -161 149 0 12 -11 32 -25 44 -14 12 -25
33 -25 46 0 13 -7 29 -15 36 -8 7 -15 24 -15 39 0 14 -9 50 -20 79 -20 52 -20
74 -20 1374 l1 1322 82 78 c45 43 86 78 92 78 5 0 37 26 70 56 33 31 74 63 90
71 17 8 48 25 70 38 22 14 47 28 55 31 8 4 26 17 40 29 14 13 39 25 55 28 31
5 70 18 145 48 25 10 59 21 75 24 17 4 37 12 45 19 8 7 69 22 135 34 195 34
201 35 252 12 25 -11 66 -20 92 -20 27 0 62 -8 84 -20 20 -11 44 -20 52 -20
18 0 94 -38 120 -60 11 -10 30 -21 42 -24 22 -7 173 -162 173 -177 0 -11 58
-97 71 -104 5 -4 9 -20 9 -36 0 -17 7 -43 15 -59 8 -16 19 -57 24 -92 6 -35
15 -79 20 -98 15 -48 16 -2495 1 -2534 -5 -15 -15 -60 -21 -99 -13 -89 -44
-156 -101 -223 -54 -62 -159 -164 -169 -164 -13 0 -22 -71 -11 -82 7 -7 261
-10 782 -11 l773 0 32 39 c48 57 35 76 -90 138 -16 8 -59 45 -95 81 -50 50
-61 68 -52 77 19 19 14 28 -13 28 -20 0 -27 6 -32 30 -3 17 -14 35 -24 40 -15
8 -18 22 -17 78 0 37 -7 95 -16 128 -14 55 -16 202 -17 1357 0 1228 1 1297 18
1324 25 40 190 203 206 203 7 0 18 9 25 20 7 11 18 20 26 20 7 0 21 9 31 20
10 11 26 20 36 20 10 0 20 4 23 9 5 7 61 36 136 70 14 6 32 15 40 19 61 34
102 51 136 58 21 4 55 15 74 25 19 11 50 19 68 19 18 0 49 7 69 15 42 18 236
20 298 4 22 -6 63 -14 91 -18 77 -10 272 -112 339 -177 56 -55 155 -195 155
-221 0 -8 6 -27 14 -41 49 -90 66 -146 66 -213 0 -38 9 -109 19 -157 19 -84
20 -129 16 -1242 -2 -679 -7 -1171 -13 -1195 -24 -100 -35 -135 -48 -146 -8
-6 -14 -25 -14 -41 0 -32 -25 -70 -80 -121 -19 -18 -51 -48 -72 -68 -20 -20
-40 -38 -45 -40 -4 -2 -20 -19 -35 -37 -28 -34 -37 -85 -18 -97 17 -10 1582
-7 1592 3 5 5 6 33 2 62 -6 44 -12 55 -38 71 -46 28 -166 140 -166 155 0 7 -6
17 -14 21 -20 12 -66 104 -66 133 0 13 -6 42 -14 65 -44 128 -47 222 -50 1537
-2 733 -6 1070 -14 1108 -44 216 -85 376 -106 415 -9 17 -16 37 -16 46 0 9 -6
22 -14 28 -8 7 -18 26 -21 42 -4 16 -10 29 -14 29 -4 0 -26 28 -48 63 -46 71
-203 237 -225 237 -8 0 -30 12 -49 26 -66 50 -260 136 -324 144 -33 4 -86 15
-118 25 -51 15 -95 16 -325 13 -234 -4 -279 -7 -362 -27 -52 -13 -112 -29
-133 -37 -20 -8 -48 -14 -60 -14 -12 0 -39 -9 -60 -20 -20 -11 -47 -20 -59
-20 -13 0 -37 -9 -54 -19 -17 -10 -45 -22 -62 -25 -17 -4 -36 -14 -43 -22 -6
-8 -24 -14 -40 -14 -19 0 -34 -8 -45 -25 -9 -14 -25 -25 -36 -25 -11 0 -31 -9
-45 -20 -14 -11 -33 -20 -43 -20 -9 0 -25 -9 -35 -20 -10 -11 -26 -20 -35 -20
-10 0 -22 -6 -28 -13 -6 -6 -40 -27 -76 -46 -36 -18 -66 -37 -66 -42 0 -5 -16
-15 -35 -23 -19 -8 -45 -26 -59 -39 -13 -13 -34 -32 -48 -43 -118 -90 -180
-134 -192 -134 -20 0 -56 50 -99 136 -34 68 -114 165 -198 241 -23 21 -54 50
-69 66 -16 15 -32 27 -38 27 -5 0 -15 6 -21 14 -7 8 -23 17 -37 20 -13 4 -33
15 -44 26 -11 11 -28 20 -39 20 -10 0 -24 6 -30 14 -7 8 -28 17 -49 21 -20 3
-46 12 -57 19 -11 8 -34 16 -50 19 -17 3 -81 16 -143 27 -101 20 -136 22 -330
17 -177 -4 -232 -9 -300 -26 -46 -11 -96 -21 -111 -21 -15 0 -44 -9 -66 -20
-22 -11 -47 -20 -57 -20 -10 0 -35 -9 -55 -20 -21 -11 -45 -20 -53 -20 -9 0
-25 -7 -36 -15 -10 -8 -33 -15 -50 -15 -17 0 -42 -8 -55 -18 -13 -11 -37 -24
-54 -29 -16 -6 -50 -23 -75 -37 -67 -38 -146 -76 -157 -76 -5 0 -18 -9 -28
-20 -10 -11 -24 -20 -31 -20 -7 0 -37 -20 -67 -45 -31 -25 -60 -45 -64 -45
-10 0 -189 -161 -240 -216 -59 -63 -58 -67 -56 293 1 180 -2 334 -7 344 -5 9
-25 20 -44 23 -20 4 -39 14 -44 22 -10 18 -23 13 -175 -62 -49 -24 -94 -44
-100 -44 -7 0 -30 -9 -52 -19 -91 -44 -133 -61 -146 -61 -8 0 -23 -7 -33 -15
-11 -8 -27 -15 -36 -15 -9 0 -56 -20 -105 -45 -50 -25 -97 -45 -105 -45 -8 0
-28 -9 -45 -20 -16 -11 -39 -20 -50 -20 -11 0 -33 -9 -50 -20 -16 -11 -39 -20
-51 -20 -12 0 -31 -9 -44 -20 -13 -11 -34 -20 -46 -20 -13 0 -38 -9 -56 -20
-18 -11 -42 -20 -53 -20 -51 0 -64 -70 -17 -94 16 -8 34 -22 41 -30 8 -9 24
-16 38 -16 13 0 26 -7 29 -15 3 -8 16 -17 27 -21 57 -18 159 -172 170 -257 4
-26 13 -60 21 -76 22 -41 21 -2606 0 -2691 -8 -30 -14 -75 -14 -101 0 -33 -5
-51 -20 -64 -12 -11 -20 -31 -20 -50 0 -19 -8 -39 -20 -50 -11 -10 -20 -24
-20 -31 0 -8 -9 -19 -20 -26 -11 -7 -20 -18 -20 -25 0 -7 -9 -17 -20 -23 -13
-7 -20 -21 -20 -40 0 -17 -5 -30 -11 -30 -20 0 -169 130 -169 147 0 4 -9 14
-20 21 -11 7 -20 20 -20 30 0 10 -9 25 -20 35 -11 9 -20 24 -20 34 0 9 -6 24
-14 32 -34 39 -37 257 -43 3296 -6 3246 -2 3034 -59 3055 -35 14 -41 13 -114
-22z m-3721 -2164 c21 -60 62 -166 71 -183 48 -95 100 -208 100 -216 0 -6 18
-45 40 -88 22 -42 40 -82 40 -89 0 -7 18 -51 41 -98 23 -47 50 -105 62 -130
11 -25 26 -56 32 -70 7 -14 15 -41 19 -61 4 -21 13 -42 21 -49 8 -7 17 -27 21
-46 3 -18 12 -38 20 -45 8 -6 14 -21 14 -33 0 -12 11 -37 25 -56 14 -19 25
-42 25 -52 0 -9 9 -32 20 -50 11 -18 20 -39 20 -46 0 -8 9 -25 20 -39 11 -14
20 -36 20 -49 0 -12 7 -35 15 -51 9 -15 20 -39 25 -53 6 -14 14 -32 19 -40 13
-20 61 -127 61 -135 0 -4 18 -45 40 -91 22 -47 40 -95 40 -108 0 -13 6 -26 14
-29 8 -3 17 -21 21 -39 4 -18 16 -44 26 -57 11 -13 19 -34 19 -46 0 -12 9 -30
20 -40 11 -10 20 -31 20 -46 0 -15 5 -31 10 -34 6 -3 10 -17 10 -30 0 -13 5
-27 10 -30 46 -29 0 -30 -947 -28 -527 2 -964 5 -970 8 -19 7 -15 43 7 65 11
11 23 32 26 47 4 16 15 38 24 50 10 13 21 38 24 57 4 19 13 39 21 46 8 7 15
24 15 37 0 14 9 36 20 50 11 14 20 35 20 47 0 12 7 31 15 42 8 10 15 28 15 39
0 11 9 34 20 50 11 17 20 38 20 49 0 10 9 35 20 55 10 20 24 55 30 77 5 23 17
47 25 54 8 7 15 27 15 45 0 19 8 39 20 50 11 10 20 28 20 41 0 13 11 44 25 70
14 26 25 53 25 59 0 7 7 18 15 25 8 7 15 21 15 31 0 11 9 36 20 56 11 21 20
47 20 59 0 12 6 27 14 33 8 7 17 24 20 39 4 15 13 41 20 57 8 17 24 55 36 85
13 30 33 78 46 105 13 28 24 58 24 66 0 9 6 22 14 28 7 6 16 29 20 50 3 21 13
44 21 51 8 7 15 25 15 41 0 16 9 38 20 49 11 11 20 31 20 45 0 14 9 34 20 45
11 11 20 31 20 45 0 14 11 47 25 73 14 26 25 52 25 58 0 6 18 44 41 85 28 51
38 81 34 97 -14 56 23 53 44 -4z M16480 10778 c-122 -10 -471 -81 -517 -106
-12 -7 -30 -12 -39 -12 -10 0 -36 -9 -58 -19 -23 -11 -60 -25 -83 -31 -23 -6
-45 -15 -48 -20 -3 -6 -14 -10 -24 -10 -10 0 -26 -9 -36 -20 -10 -11 -28 -20
-40 -20 -11 0 -36 -11 -55 -25 -19 -14 -39 -25 -45 -25 -7 0 -20 -9 -30 -20
-10 -11 -28 -20 -40 -20 -12 0 -30 -9 -40 -20 -10 -11 -25 -20 -34 -20 -9 0
-36 -18 -60 -40 -25 -22 -51 -40 -59 -40 -9 0 -22 -7 -31 -15 -47 -43 -61 -54
-107 -83 -103 -67 -354 -350 -354 -399 0 -6 -9 -18 -20 -28 -13 -12 -19 -29
-18 -54 0 -20 -2 -52 -7 -71 -5 -28 -3 -41 13 -60 18 -22 22 -23 47 -12 37 17
190 147 251 214 27 30 74 72 104 94 30 23 62 49 70 59 8 10 40 36 70 58 30 22
57 44 60 48 9 14 94 69 106 69 6 0 17 6 23 14 7 8 25 18 41 21 16 3 34 13 41
21 6 8 20 14 30 14 11 0 36 9 56 20 21 11 45 20 53 20 8 0 29 8 45 18 17 10
50 21 73 25 24 3 51 12 61 21 10 9 35 16 57 16 22 0 89 9 149 20 126 23 242
26 288 6 18 -7 59 -16 90 -20 55 -7 120 -29 179 -62 14 -7 35 -14 45 -14 11 0
28 -9 38 -20 10 -11 25 -20 33 -20 23 0 192 -148 192 -168 0 -4 18 -25 40 -47
21 -22 39 -46 40 -53 0 -8 9 -25 20 -39 11 -14 20 -35 20 -45 0 -11 9 -31 20
-45 11 -14 20 -40 20 -57 0 -18 9 -50 20 -71 11 -22 18 -46 15 -54 -7 -17 11
-121 31 -179 15 -45 19 -130 6 -148 -10 -14 -126 -43 -242 -60 -52 -7 -106
-18 -119 -24 -13 -6 -55 -15 -93 -20 -38 -4 -77 -15 -86 -23 -9 -8 -41 -17
-71 -21 -30 -4 -66 -13 -81 -21 -15 -8 -51 -17 -81 -21 -30 -4 -65 -12 -79
-19 -14 -7 -47 -16 -73 -19 -26 -4 -67 -16 -90 -26 -23 -11 -53 -20 -67 -20
-14 0 -36 -6 -50 -13 -27 -14 -153 -57 -240 -81 -111 -31 -129 -37 -140 -52
-7 -7 -20 -14 -30 -14 -10 0 -23 -6 -29 -14 -7 -8 -27 -18 -44 -22 -18 -3 -43
-12 -57 -19 -14 -8 -52 -26 -85 -41 -33 -15 -66 -35 -73 -45 -7 -11 -24 -19
-38 -19 -13 0 -33 -9 -44 -20 -11 -11 -26 -20 -34 -20 -31 0 -242 -152 -353
-255 -35 -32 -83 -86 -105 -120 -23 -33 -47 -64 -53 -70 -16 -14 -55 -84 -55
-99 0 -7 -9 -21 -19 -30 -11 -10 -23 -32 -27 -50 -3 -17 -12 -42 -20 -56 -63
-116 -91 -296 -76 -500 13 -174 23 -234 45 -277 9 -18 17 -39 17 -47 0 -18 68
-173 92 -208 10 -14 18 -33 18 -40 0 -8 11 -20 25 -26 14 -6 25 -20 25 -29 1
-10 14 -29 30 -43 17 -13 30 -32 30 -42 0 -12 8 -18 25 -18 19 0 29 -9 45 -44
16 -36 23 -43 41 -39 14 4 31 -5 57 -30 20 -19 48 -38 62 -42 14 -4 32 -13 40
-20 8 -8 27 -17 43 -20 15 -4 32 -16 38 -26 7 -14 21 -19 48 -19 24 0 41 -5
44 -14 4 -9 29 -17 68 -21 34 -4 76 -16 94 -26 28 -17 51 -19 251 -16 205 2
222 3 261 25 23 12 57 22 75 22 21 0 40 7 51 20 10 12 29 20 48 20 17 0 42 9
56 20 14 11 32 20 40 20 8 0 26 9 40 20 14 11 35 20 47 20 11 0 37 16 56 36
19 19 46 38 60 41 46 11 94 50 226 179 120 119 264 288 264 311 0 6 13 24 29
41 17 17 40 50 52 74 12 23 34 58 50 78 15 19 43 63 61 97 18 34 50 91 70 126
21 35 43 86 49 113 6 27 13 55 15 62 2 6 9 12 15 12 8 0 10 -14 5 -47 -12 -82
-17 -1191 -6 -1198 6 -4 290 -6 632 -5 705 1 664 -4 655 77 -5 44 -24 67 -77
95 -14 7 -47 30 -73 50 -27 21 -53 38 -57 38 -10 0 -90 137 -90 154 0 6 -9 28
-20 48 -11 21 -25 63 -31 95 -7 39 -13 444 -18 1264 -5 869 -10 1210 -18 1220
-18 23 -43 119 -43 169 0 25 -9 71 -20 103 -11 31 -20 63 -20 72 0 8 -9 29
-20 47 -11 18 -20 41 -20 51 0 11 -9 30 -20 44 -11 14 -20 34 -20 43 0 10 -7
23 -15 30 -8 7 -15 19 -15 26 0 8 -9 22 -20 31 -11 10 -20 24 -20 31 0 8 -62
77 -137 153 -108 109 -154 148 -211 179 -41 22 -79 40 -86 40 -8 0 -24 8 -37
18 -28 22 -165 72 -194 72 -12 0 -38 9 -60 20 -22 11 -59 20 -82 20 -24 0 -69
9 -101 19 -67 22 -336 32 -512 19z m724 -1727 c3 -4 1 -147 -5 -317 -9 -286
-12 -314 -34 -383 -14 -40 -25 -90 -25 -110 -1 -20 -7 -47 -15 -61 -8 -14 -14
-38 -15 -54 0 -16 -9 -43 -19 -60 -10 -17 -22 -45 -26 -63 -3 -17 -12 -37 -20
-43 -7 -6 -16 -27 -20 -47 -4 -21 -18 -50 -31 -66 -13 -16 -24 -34 -24 -40 -1
-29 -248 -368 -300 -410 -28 -23 -112 -85 -139 -102 -9 -6 -36 -24 -60 -40
-137 -93 -325 -149 -501 -149 -116 0 -262 24 -288 47 -9 8 -42 25 -72 38 -80
34 -118 62 -187 139 -62 70 -105 147 -141 255 -26 79 -30 291 -7 378 8 32 15
70 15 84 0 14 8 42 18 62 11 20 32 63 48 95 32 66 222 272 297 322 23 16 60
43 83 61 23 18 48 33 56 33 8 0 25 9 38 20 13 11 34 20 47 20 13 0 26 6 29 14
3 8 22 22 42 30 20 9 44 20 52 25 28 17 105 53 130 62 14 4 57 19 95 34 39 14
93 32 120 40 28 8 82 24 120 35 39 12 95 29 125 36 30 8 78 21 105 29 28 8 83
19 124 25 40 6 76 12 80 15 4 2 50 11 102 19 52 9 108 20 124 25 39 12 73 13
79 2z M14806 5921 c-41 -9 -43 -28 -5 -48 82 -45 155 -148 234 -333 8 -19 26
-53 39 -75 14 -22 39 -65 55 -95 17 -30 35 -62 40 -70 5 -8 14 -26 20 -40 7
-14 19 -38 28 -55 12 -21 19 -76 26 -187 12 -187 5 -229 -46 -254 -49 -25 -79
-62 -67 -84 9 -17 23 -18 147 -15 165 3 233 12 233 30 0 8 -21 31 -46 53 -55
47 -61 70 -65 247 -1 85 3 136 14 175 14 50 100 213 132 250 7 8 25 40 39 70
15 30 34 69 43 85 9 17 31 60 50 97 19 36 41 72 49 79 9 7 22 25 30 40 8 16
34 40 59 55 44 25 58 55 34 69 -39 25 -339 7 -339 -20 0 -20 29 -52 60 -65 16
-7 30 -16 30 -21 0 -4 -13 -31 -30 -59 -16 -28 -30 -58 -30 -66 0 -9 -11 -37
-24 -63 -13 -25 -29 -57 -35 -71 -6 -14 -15 -32 -21 -40 -5 -8 -23 -44 -40
-80 -36 -76 -65 -106 -86 -89 -8 6 -14 19 -14 29 0 9 -13 36 -30 58 -16 23
-30 48 -30 55 0 7 -9 20 -20 30 -11 9 -20 29 -20 45 0 15 -9 35 -20 45 -11 9
-20 27 -20 40 0 13 -7 32 -15 43 -8 10 -15 25 -15 32 0 7 -10 26 -22 43 -21
28 -21 32 -7 57 11 20 21 26 41 24 29 -4 71 33 66 58 -2 8 -17 18 -33 21 -39
9 -351 9 -389 0z M15928 5502 c-26 -9 -53 -23 -60 -29 -6 -7 -19 -13 -28 -13
-26 0 -138 -123 -165 -182 -21 -46 -25 -67 -25 -158 0 -124 14 -183 64 -267
50 -84 106 -128 213 -165 70 -24 99 -29 144 -25 107 9 238 85 283 162 34 59
66 159 66 208 0 23 7 55 15 70 13 26 13 35 -4 95 -41 146 -101 226 -209 278
-67 31 -88 37 -162 40 -61 2 -98 -2 -132 -14z m229 -138 c49 -43 64 -63 68
-92 3 -20 13 -53 22 -72 38 -83 -4 -341 -63 -394 -65 -59 -104 -66 -207 -38
-100 27 -149 141 -148 346 0 78 5 107 21 140 11 23 20 52 20 64 0 12 14 37 31
56 31 36 44 40 154 44 35 2 47 -4 102 -54z M16775 5506 c-44 -12 -152 -75
-177 -103 -9 -10 -19 -29 -23 -43 -4 -14 -15 -33 -24 -43 -12 -15 -15 -37 -13
-105 3 -85 18 -136 77 -252 13 -26 9 -96 -6 -106 -13 -8 -11 -48 3 -62 6 -6 9
-15 5 -19 -4 -4 -13 -1 -19 5 -18 18 -30 14 -23 -8 4 -13 -1 -30 -14 -46 -12
-15 -21 -34 -21 -43 0 -10 -5 -22 -10 -27 -44 -44 -12 -151 61 -204 23 -16 49
-30 57 -30 9 0 26 -10 39 -21 18 -18 42 -24 130 -31 196 -18 321 22 410 131
57 70 61 82 54 163 -8 80 -30 108 -133 169 l-66 39 -149 0 c-109 0 -154 4
-168 13 -35 26 -7 37 91 37 85 0 101 3 152 29 31 16 77 50 101 74 51 53 65
102 66 237 0 83 1 85 28 98 19 9 27 20 24 30 -14 51 -13 52 25 37 21 -8 42 28
34 60 -7 27 -31 38 -55 25 -12 -6 -31 -6 -51 0 -22 6 -52 5 -94 -4 -75 -16
-136 -14 -256 8 -8 2 -33 -2 -55 -8z m177 -135 c59 -40 70 -67 62 -149 -5 -50
-14 -79 -37 -114 -34 -54 -34 -54 -111 -63 -57 -7 -58 -7 -97 31 -27 26 -45
56 -55 91 -14 48 -14 59 2 123 13 54 21 71 38 76 11 4 32 16 46 26 34 27 94
18 152 -21z m-32 -646 c99 -8 147 -23 171 -53 25 -32 24 -68 -4 -117 -34 -60
-63 -70 -192 -69 -100 1 -115 3 -162 28 -48 25 -53 31 -59 71 -5 36 -2 51 16
80 27 44 84 76 125 70 17 -2 64 -7 105 -10z M17615 5511 c-67 -8 -184 -63
-191 -90 -3 -9 -14 -33 -24 -53 -24 -44 -26 -91 -5 -108 13 -10 22 -10 53 3
20 8 45 18 54 21 13 4 16 13 12 38 -5 27 -1 38 23 59 33 30 120 54 166 45 34
-6 61 -45 92 -135 20 -59 19 -81 -9 -113 -22 -25 -32 -27 -131 -34 -93 -6
-108 -9 -112 -25 -6 -21 -33 -25 -50 -8 -15 15 -43 4 -43 -17 0 -9 -19 -35
-43 -58 -24 -23 -56 -60 -71 -83 -26 -38 -28 -48 -21 -98 5 -45 14 -64 47
-103 22 -26 60 -59 85 -73 39 -24 53 -26 107 -22 39 3 73 13 96 28 105 67 109
69 130 50 11 -10 22 -26 25 -36 5 -15 16 -19 54 -19 26 0 63 -7 80 -16 31 -16
35 -15 80 6 53 24 79 56 62 73 -8 8 -14 8 -23 -1 -20 -20 -42 -13 -63 21 -18
29 -20 55 -25 308 l-5 276 -44 57 c-69 92 -162 124 -306 107z m163 -453 c27
-27 6 -174 -27 -198 -12 -8 -43 -32 -69 -52 -60 -49 -115 -52 -154 -10 -46 49
-41 155 9 190 14 10 37 27 53 40 44 35 164 54 188 30z"/>
  </g>
</svg>
